<svg width="36" height="36" viewBox="0 0 36 36" fill="none" xmlns="http://www.w3.org/2000/svg">
<g clip-path="url(#clip0_113_33)">
<path d="M5.85 9H3.15C2.40188 9 1.8 9.60188 1.8 10.35V16.2H0.45C0.2025 16.2 0 16.4025 0 16.65V19.35C0 19.5975 0.2025 19.8 0.45 19.8H1.8V25.65C1.8 26.3981 2.40188 27 3.15 27H5.85C6.59812 27 7.2 26.3981 7.2 25.65V10.35C7.2 9.60188 6.59812 9 5.85 9ZM35.55 16.2H34.2V10.35C34.2 9.60188 33.5981 9 32.85 9H30.15C29.4019 9 28.8 9.60188 28.8 10.35V25.65C28.8 26.3981 29.4019 27 30.15 27H32.85C33.5981 27 34.2 26.3981 34.2 25.65V19.8H35.55C35.7975 19.8 36 19.5975 36 19.35V16.65C36 16.4025 35.7975 16.2 35.55 16.2ZM25.65 5.4H22.95C22.2019 5.4 21.6 6.00188 21.6 6.75V16.2H14.4V6.75C14.4 6.00188 13.7981 5.4 13.05 5.4H10.35C9.60187 5.4 9 6.00188 9 6.75V29.25C9 29.9981 9.60187 30.6 10.35 30.6H13.05C13.7981 30.6 14.4 29.9981 14.4 29.25V19.8H21.6V29.25C21.6 29.9981 22.2019 30.6 22.95 30.6H25.65C26.3981 30.6 27 29.9981 27 29.25V6.75C27 6.00188 26.3981 5.4 25.65 5.4Z" fill="#EF4444"/>
</g>
<defs>
<clipPath id="clip0_113_33">
<rect width="36" height="36" fill="white"/>
</clipPath>
</defs>
</svg>
