<svg width="36" height="36" viewBox="0 0 36 36" fill="none" xmlns="http://www.w3.org/2000/svg">
<g clip-path="url(#clip0_113_28)">
<path d="M14.4 22.5H14.3989C14.3989 21.5899 14.4742 22.0089 9.61481 12.2901C8.622 10.305 5.77912 10.3011 4.78462 12.2901C-0.115875 22.0922 0.001125 21.6186 0.001125 22.5H0C0 24.9851 3.22369 27 7.2 27C11.1763 27 14.4 24.9851 14.4 22.5ZM7.2 13.5L11.25 21.6H3.15L7.2 13.5ZM35.9989 22.5C35.9989 21.5899 36.0742 22.0089 31.2148 12.2901C30.222 10.305 27.3791 10.3011 26.3846 12.2901C21.4841 22.0922 21.6011 21.6186 21.6011 22.5H21.6C21.6 24.9851 24.8237 27 28.8 27C32.7763 27 36 24.9851 36 22.5H35.9989ZM24.75 21.6L28.8 13.5L32.85 21.6H24.75ZM29.7 28.8H19.8V12.2203C21.1224 11.6415 22.1152 10.4496 22.4094 9H29.7C30.1972 9 30.6 8.59725 30.6 8.1V6.3C30.6 5.80275 30.1972 5.4 29.7 5.4H21.5798C20.7585 4.31325 19.4676 3.6 18 3.6C16.5324 3.6 15.2415 4.31325 14.4202 5.4H6.3C5.80275 5.4 5.4 5.80275 5.4 6.3V8.1C5.4 8.59725 5.80275 9 6.3 9H13.5906C13.8847 10.449 14.877 11.6415 16.2 12.2203V28.8H6.3C5.80275 28.8 5.4 29.2027 5.4 29.7V31.5C5.4 31.9972 5.80275 32.4 6.3 32.4H29.7C30.1972 32.4 30.6 31.9972 30.6 31.5V29.7C30.6 29.2027 30.1972 28.8 29.7 28.8Z" fill="#EF4444"/>
</g>
<defs>
<clipPath id="clip0_113_28">
<rect width="36" height="36" fill="white"/>
</clipPath>
</defs>
</svg>
