<svg width="16" height="16" viewBox="0 0 16 16" fill="none" xmlns="http://www.w3.org/2000/svg">
<g clip-path="url(#clip0_90_213)">
<path d="M2.6 4.00002H1.4C1.0675 4.00002 0.8 4.26752 0.8 4.60002V7.20002H0.2C0.09 7.20002 0 7.29002 0 7.40002V8.60002C0 8.71002 0.09 8.80002 0.2 8.80002H0.8V11.4C0.8 11.7325 1.0675 12 1.4 12H2.6C2.9325 12 3.2 11.7325 3.2 11.4V4.60002C3.2 4.26752 2.9325 4.00002 2.6 4.00002ZM15.8 7.20002H15.2V4.60002C15.2 4.26752 14.9325 4.00002 14.6 4.00002H13.4C13.0675 4.00002 12.8 4.26752 12.8 4.60002V11.4C12.8 11.7325 13.0675 12 13.4 12H14.6C14.9325 12 15.2 11.7325 15.2 11.4V8.80002H15.8C15.91 8.80002 16 8.71002 16 8.60002V7.40002C16 7.29002 15.91 7.20002 15.8 7.20002ZM11.4 2.40002H10.2C9.8675 2.40002 9.6 2.66752 9.6 3.00002V7.20002H6.4V3.00002C6.4 2.66752 6.1325 2.40002 5.8 2.40002H4.6C4.2675 2.40002 4 2.66752 4 3.00002V13C4 13.3325 4.2675 13.6 4.6 13.6H5.8C6.1325 13.6 6.4 13.3325 6.4 13V8.80002H9.6V13C9.6 13.3325 9.8675 13.6 10.2 13.6H11.4C11.7325 13.6 12 13.3325 12 13V3.00002C12 2.66752 11.7325 2.40002 11.4 2.40002Z" fill="#EF4444"/>
</g>
<defs>
<clipPath id="clip0_90_213">
<rect width="16" height="16" fill="white"/>
</clipPath>
</defs>
</svg>
