<svg width="16" height="16" viewBox="0 0 16 16" fill="none" xmlns="http://www.w3.org/2000/svg">
<path d="M8.00303 4.40635C6.01553 4.40635 4.4124 6.00947 4.4124 7.99697C4.4124 9.98447 6.01553 11.5876 8.00303 11.5876C9.99053 11.5876 11.5937 9.98447 11.5937 7.99697C11.5937 6.00947 9.99053 4.40635 8.00303 4.40635ZM8.00303 10.3313C6.71865 10.3313 5.66865 9.28447 5.66865 7.99697C5.66865 6.70947 6.71553 5.6626 8.00303 5.6626C9.29053 5.6626 10.3374 6.70947 10.3374 7.99697C10.3374 9.28447 9.2874 10.3313 8.00303 10.3313ZM12.578 4.25947C12.578 4.7251 12.203 5.09697 11.7405 5.09697C11.2749 5.09697 10.903 4.72197 10.903 4.25947C10.903 3.79697 11.278 3.42197 11.7405 3.42197C12.203 3.42197 12.578 3.79697 12.578 4.25947ZM14.9562 5.10947C14.903 3.9876 14.6468 2.99385 13.8249 2.1751C13.0062 1.35635 12.0124 1.1001 10.8905 1.04385C9.73428 0.978223 6.26865 0.978223 5.1124 1.04385C3.99365 1.09697 2.9999 1.35322 2.17803 2.17197C1.35615 2.99072 1.10303 3.98447 1.04678 5.10635C0.981152 6.2626 0.981152 9.72822 1.04678 10.8845C1.0999 12.0063 1.35615 13.0001 2.17803 13.8188C2.9999 14.6376 3.99053 14.8938 5.1124 14.9501C6.26865 15.0157 9.73428 15.0157 10.8905 14.9501C12.0124 14.897 13.0062 14.6407 13.8249 13.8188C14.6437 13.0001 14.8999 12.0063 14.9562 10.8845C15.0218 9.72822 15.0218 6.26572 14.9562 5.10947ZM13.4624 12.1251C13.2187 12.7376 12.7468 13.2095 12.1312 13.4563C11.2093 13.822 9.02178 13.7376 8.00303 13.7376C6.98428 13.7376 4.79365 13.8188 3.8749 13.4563C3.2624 13.2126 2.79053 12.7407 2.54365 12.1251C2.17803 11.2032 2.2624 9.01572 2.2624 7.99697C2.2624 6.97822 2.18115 4.7876 2.54365 3.86885C2.7874 3.25635 3.25928 2.78447 3.8749 2.5376C4.79678 2.17197 6.98428 2.25635 8.00303 2.25635C9.02178 2.25635 11.2124 2.1751 12.1312 2.5376C12.7437 2.78135 13.2155 3.25322 13.4624 3.86885C13.828 4.79072 13.7437 6.97822 13.7437 7.99697C13.7437 9.01572 13.828 11.2063 13.4624 12.1251Z" fill="#9CA3AF"/>
</svg>
