<svg width="18" height="18" viewBox="0 0 18 18" fill="none" xmlns="http://www.w3.org/2000/svg">
<path d="M17.4868 12.7196L13.5492 11.032C13.381 10.9603 13.1941 10.9452 13.0165 10.989C12.839 11.0327 12.6805 11.133 12.5648 11.2746L10.821 13.4051C8.08431 12.1148 5.88187 9.91235 4.59153 7.17562L6.72206 5.43182C6.86398 5.31639 6.96443 5.15787 7.0082 4.98024C7.05197 4.80262 7.03668 4.61557 6.96464 4.44742L5.2771 0.509812C5.19803 0.328545 5.0582 0.180546 4.8817 0.0913356C4.70521 0.00212531 4.50311 -0.0227047 4.31027 0.0211271L0.653924 0.8649C0.468002 0.907833 0.302122 1.01252 0.183357 1.16187C0.0645926 1.31122 -4.28289e-05 1.49641 2.12919e-08 1.68723C2.12919e-08 10.705 7.30918 18.0002 16.3129 18.0002C16.5038 18.0003 16.6891 17.9357 16.8385 17.8169C16.9879 17.6982 17.0927 17.5322 17.1356 17.3462L17.9794 13.6899C18.0229 13.4961 17.9976 13.2932 17.9077 13.1161C17.8178 12.939 17.669 12.7988 17.4868 12.7196Z" fill="#EF4444"/>
</svg>
