<svg width="16" height="16" viewBox="0 0 16 16" fill="none" xmlns="http://www.w3.org/2000/svg">
<g clip-path="url(#clip0_90_222)">
<path d="M7.6 5.93439V8.06252C8.41562 8.24689 9.14062 8.55002 9.9 8.75939V6.62814C9.0875 6.44689 8.35625 6.14377 7.6 5.93439ZM14.5781 2.09064C13.5063 2.58752 12.1875 3.08752 10.9219 3.08752C9.25 3.08752 7.86563 2.00002 5.75938 2.00002C4.97813 2.00002 4.28125 2.13752 3.63438 2.37502C3.72188 2.14689 3.7625 1.90002 3.74688 1.63752C3.69062 0.750017 2.9625 0.0375169 2.07188 1.69252e-05C1.07188 -0.0406081 0.25 0.759392 0.25 1.75002C0.25 2.34377 0.546875 2.86877 1 3.18439V15.25C1 15.6656 1.33438 16 1.75 16H2.25C2.66563 16 3 15.6656 3 15.25V12.3C3.88438 11.9219 4.9875 11.6094 6.575 11.6094C8.25 11.6094 9.63125 12.6969 11.7375 12.6969C13.2438 12.6969 14.4469 12.1875 15.5656 11.4188C15.8375 11.2313 15.9969 10.925 15.9969 10.5938V2.99689C16 2.26877 15.2406 1.78439 14.5781 2.09064ZM5.3 10.1719C4.49375 10.2563 3.7375 10.4281 3 10.6906V8.48752C3.81875 8.19689 4.48438 8.01877 5.3 7.94377V10.1719ZM14.5 5.96877C13.7625 6.27502 13.0531 6.57814 12.2 6.71564V8.93752C12.975 8.83127 13.8062 8.56877 14.5 8.12502V10.3281C13.7156 10.8313 12.9844 11.1 12.2 11.175V8.93752C11.3562 9.05314 10.7031 8.98439 9.9 8.76252V10.8688C9.15312 10.6375 8.42188 10.3469 7.6 10.2031V8.06252C6.98438 7.92502 6.325 7.85002 5.3 7.94377V5.75627C4.6 5.85314 3.90625 6.07502 3 6.40939V4.20627C4.0375 3.82502 4.56563 3.58752 5.3 3.51877V5.75627C6.14375 5.64064 6.8125 5.71564 7.6 5.93439V3.82814C8.34062 4.05939 9.075 4.35002 9.9 4.49377V6.63127C10.6406 6.79689 11.3875 6.84689 12.2 6.71564V4.46877C13.0437 4.31877 13.8344 4.04377 14.5 3.76564V5.96877Z" fill="#EF4444"/>
</g>
<defs>
<clipPath id="clip0_90_222">
<rect width="16" height="16" fill="white"/>
</clipPath>
</defs>
</svg>
