<svg width="36" height="36" viewBox="0 0 36 36" fill="none" xmlns="http://www.w3.org/2000/svg">
<path d="M22.5 6.75C24.364 6.75 25.875 5.23898 25.875 3.375C25.875 1.51102 24.364 0 22.5 0C20.636 0 19.125 1.51102 19.125 3.375C19.125 5.23898 20.636 6.75 22.5 6.75ZM11.3688 22.3221L10.3282 24.7493H5.625C4.38258 24.7493 3.375 25.7569 3.375 26.9993C3.375 28.2417 4.38258 29.2493 5.625 29.2493H11.0707C12.4242 29.2493 13.6427 28.4449 14.1722 27.2039L14.7902 25.7611L14.04 25.3181C12.8222 24.5988 11.9264 23.5343 11.3688 22.3221ZM30.375 15.7493H27.2791L25.4468 12.0052C24.5679 10.2087 22.9542 8.89524 21.1029 8.42344L16.1051 6.93703C14.1152 6.45891 12.0431 6.89836 10.421 8.14219L7.63172 10.2804C6.64523 11.0363 6.4582 12.4481 7.21547 13.4346C7.97273 14.4211 9.38391 14.606 10.3697 13.8509L13.1604 11.7127C13.6997 11.2985 14.3866 11.1502 14.9372 11.2809L15.9708 11.5882L13.3369 17.7328C12.4495 19.8056 13.2448 22.2335 15.1861 23.3796L21.1613 26.9072L19.2298 33.0757C18.8585 34.2612 19.5188 35.5233 20.7042 35.8945C20.9285 35.9648 21.1549 35.9986 21.3778 35.9986C22.3348 35.9986 23.2221 35.382 23.5238 34.4201L25.7484 27.3143C26.164 25.8539 25.5452 24.2852 24.2269 23.49L19.9209 20.9489L22.1224 15.4448L23.5477 18.3579C24.1102 19.5068 25.2998 20.2486 26.5788 20.2486H30.375C31.6174 20.2486 32.625 19.241 32.625 17.9986C32.625 16.7562 31.6174 15.7493 30.375 15.7493Z" fill="#EF4444"/>
</svg>
