<svg width="16" height="16" viewBox="0 0 16 16" fill="none" xmlns="http://www.w3.org/2000/svg">
<g clip-path="url(#clip0_90_232)">
<rect width="16" height="16" fill="#181E28"/>
<path d="M8 0.25C3.71969 0.25 0.25 3.71969 0.25 8C0.25 12.2803 3.71969 15.75 8 15.75C12.2803 15.75 15.75 12.2803 15.75 8C15.75 3.71969 12.2803 0.25 8 0.25ZM8 13.75C4.82219 13.75 2.25 11.1784 2.25 8C2.25 4.82219 4.82156 2.25 8 2.25C11.1778 2.25 13.75 4.82156 13.75 8C13.75 11.1778 11.1784 13.75 8 13.75ZM8 4C5.79094 4 4 5.79094 4 8C4 10.2091 5.79094 12 8 12C10.2091 12 12 10.2091 12 8C12 5.79094 10.2091 4 8 4ZM8 10C6.89719 10 6 9.10281 6 8C6 6.89719 6.89719 6 8 6C9.10281 6 10 6.89719 10 8C10 9.10281 9.10281 10 8 10Z" fill="#EF4444"/>
</g>
<defs>
<clipPath id="clip0_90_232">
<rect width="16" height="16" fill="white"/>
</clipPath>
</defs>
</svg>
