<svg width="36" height="36" viewBox="0 0 36 36" fill="none" xmlns="http://www.w3.org/2000/svg">
<g clip-path="url(#clip0_113_38)">
<path d="M35.879 31.3495L30.7441 10.8091C30.4769 9.74109 29.5881 9.0007 28.5735 9.0007H24.3372C24.5882 8.29406 24.7506 7.54383 24.7506 6.7507C24.7506 3.02273 21.7286 0.000701904 18.0006 0.000701904C14.2727 0.000701904 11.2506 3.02273 11.2506 6.7507C11.2506 7.54383 11.4124 8.29406 11.6641 9.0007H7.42775C6.41314 9.0007 5.52369 9.7418 5.25721 10.8091L0.120879 31.3495C-0.464824 33.6916 1.15166 36 3.37705 36H32.6235C34.8482 36 36.4647 33.6916 35.879 31.3495ZM17.9999 9C16.7596 9 15.7499 7.99031 15.7499 6.75C15.7499 5.50969 16.7596 4.5 17.9999 4.5C19.2403 4.5 20.2499 5.50969 20.2499 6.75C20.2499 7.99031 19.2403 9 17.9999 9Z" fill="#EF4444"/>
</g>
<defs>
<clipPath id="clip0_113_38">
<rect width="36" height="36" fill="white"/>
</clipPath>
</defs>
</svg>
