<svg width="357" height="160" viewBox="0 0 357 160" fill="none" xmlns="http://www.w3.org/2000/svg">
<g clip-path="url(#clip0_113_548)">
<path d="M357 0H0V160H357V0Z" fill="#DDDDDD"/>
<path d="M75.7791 75.248L72.6851 74.88C72.9231 73.7707 73.3833 72.7973 74.0655 71.96C74.7478 71.1227 75.6006 70.424 76.624 69.864C77.6474 69.304 78.8216 68.8827 80.1464 68.6C81.4713 68.3173 82.8953 68.176 84.4185 68.176C86.0052 68.176 87.4372 68.328 88.7144 68.632C89.9917 68.936 91.0825 69.3573 91.9869 69.896C92.8913 70.4347 93.5855 71.0667 94.0694 71.792C94.5534 72.5173 94.7953 73.3013 94.7953 74.144C94.7953 74.88 94.6724 75.528 94.4264 76.088C94.1805 76.648 93.8275 77.136 93.3673 77.552C92.9072 77.968 92.336 78.32 91.6537 78.608C90.9715 78.896 90.2019 79.136 89.3451 79.328C91.4078 79.7653 92.9469 80.432 93.9623 81.328C94.9778 82.224 95.4855 83.3493 95.4855 84.704C95.4855 85.856 95.1682 86.8747 94.5335 87.76C93.8989 88.6453 93.0421 89.3893 91.9631 89.992C90.8842 90.5947 89.6347 91.0507 88.2146 91.36C86.7946 91.6693 85.2912 91.824 83.7045 91.824C81.9751 91.824 80.4677 91.6907 79.1825 91.424C77.8973 91.1573 76.7787 90.7627 75.8267 90.24C74.8747 89.7173 74.0655 89.0773 73.3991 88.32C72.7327 87.5627 72.1615 86.688 71.6855 85.696L74.2797 84.976C74.962 84.784 75.6006 84.7333 76.1956 84.824C76.7906 84.9147 77.223 85.1307 77.4927 85.472C77.7783 85.8453 78.0917 86.2133 78.4328 86.576C78.774 86.9387 79.1825 87.2613 79.6585 87.544C80.1345 87.8267 80.6938 88.056 81.3364 88.232C81.979 88.408 82.7446 88.496 83.6331 88.496C84.6327 88.496 85.5054 88.3867 86.2511 88.168C86.9969 87.9493 87.6196 87.664 88.1194 87.312C88.6192 86.96 88.9921 86.568 89.238 86.136C89.484 85.704 89.6069 85.2693 89.6069 84.832C89.6069 84.2773 89.5197 83.7733 89.3451 83.32C89.1706 82.8667 88.8057 82.48 88.2503 82.16C87.695 81.84 86.8977 81.5893 85.8584 81.408C84.8192 81.2267 83.4269 81.136 81.6815 81.136V78.32C83.1254 78.3093 84.3233 78.2187 85.2753 78.048C86.2273 77.8773 86.985 77.64 87.5482 77.336C88.1115 77.032 88.5042 76.6667 88.7263 76.24C88.9485 75.8133 89.0595 75.344 89.0595 74.832C89.0595 73.744 88.6073 72.9173 87.7029 72.352C86.7985 71.7867 85.5927 71.504 84.0853 71.504C83.3872 71.504 82.7446 71.5707 82.1575 71.704C81.5705 71.8373 81.0429 72.024 80.5748 72.264C80.1068 72.504 79.7141 72.784 79.3967 73.104C79.0794 73.424 78.8414 73.776 78.6827 74.16C78.413 74.6507 78.06 74.976 77.6236 75.136C77.1873 75.296 76.5725 75.3333 75.7791 75.248ZM124.141 80C124.141 82.016 123.819 83.768 123.177 85.256C122.534 86.744 121.646 87.9733 120.511 88.944C119.377 89.9147 118.036 90.6373 116.489 91.112C114.942 91.5867 113.272 91.824 111.479 91.824C109.686 91.824 108.024 91.5867 106.493 91.112C104.962 90.6373 103.633 89.9147 102.507 88.944C101.38 87.9733 100.499 86.744 99.8647 85.256C99.2301 83.768 98.9127 82.016 98.9127 80C98.9127 77.9733 99.2301 76.2187 99.8647 74.736C100.499 73.2533 101.38 72.0267 102.507 71.056C103.633 70.0853 104.962 69.3627 106.493 68.888C108.024 68.4133 109.686 68.176 111.479 68.176C113.272 68.176 114.942 68.4133 116.489 68.888C118.036 69.3627 119.377 70.0853 120.511 71.056C121.646 72.0267 122.534 73.2533 123.177 74.736C123.819 76.2187 124.141 77.9733 124.141 80ZM118.072 80C118.072 78.3253 117.889 76.9387 117.524 75.84C117.159 74.7413 116.672 73.8667 116.061 73.216C115.45 72.5653 114.748 72.1093 113.954 71.848C113.161 71.5867 112.336 71.456 111.479 71.456C110.638 71.456 109.825 71.5867 109.04 71.848C108.254 72.1093 107.56 72.5653 106.957 73.216C106.354 73.8667 105.874 74.7413 105.517 75.84C105.16 76.9387 104.982 78.3253 104.982 80C104.982 81.6747 105.16 83.0613 105.517 84.16C105.874 85.2587 106.354 86.1333 106.957 86.784C107.56 87.4347 108.254 87.8907 109.04 88.152C109.825 88.4133 110.638 88.544 111.479 88.544C112.336 88.544 113.161 88.4133 113.954 88.152C114.748 87.8907 115.45 87.4347 116.061 86.784C116.672 86.1333 117.159 85.2587 117.524 84.16C117.889 83.0613 118.072 81.6747 118.072 80ZM151.749 80C151.749 82.016 151.427 83.768 150.785 85.256C150.142 86.744 149.254 87.9733 148.119 88.944C146.985 89.9147 145.644 90.6373 144.097 91.112C142.55 91.5867 140.88 91.824 139.087 91.824C137.294 91.824 135.632 91.5867 134.101 91.112C132.57 90.6373 131.241 89.9147 130.115 88.944C128.988 87.9733 128.107 86.744 127.473 85.256C126.838 83.768 126.521 82.016 126.521 80C126.521 77.9733 126.838 76.2187 127.473 74.736C128.107 73.2533 128.988 72.0267 130.115 71.056C131.241 70.0853 132.57 69.3627 134.101 68.888C135.632 68.4133 137.294 68.176 139.087 68.176C140.88 68.176 142.55 68.4133 144.097 68.888C145.644 69.3627 146.985 70.0853 148.119 71.056C149.254 72.0267 150.142 73.2533 150.785 74.736C151.427 76.2187 151.749 77.9733 151.749 80ZM145.68 80C145.68 78.3253 145.497 76.9387 145.132 75.84C144.767 74.7413 144.28 73.8667 143.669 73.216C143.058 72.5653 142.356 72.1093 141.562 71.848C140.769 71.5867 139.944 71.456 139.087 71.456C138.246 71.456 137.433 71.5867 136.648 71.848C135.862 72.1093 135.168 72.5653 134.565 73.216C133.962 73.8667 133.482 74.7413 133.125 75.84C132.768 76.9387 132.59 78.3253 132.59 80C132.59 81.6747 132.768 83.0613 133.125 84.16C133.482 85.2587 133.962 86.1333 134.565 86.784C135.168 87.4347 135.862 87.8907 136.648 88.152C137.433 88.4133 138.246 88.544 139.087 88.544C139.944 88.544 140.769 88.4133 141.562 88.152C142.356 87.8907 143.058 87.4347 143.669 86.784C144.28 86.1333 144.767 85.2587 145.132 84.16C145.497 83.0613 145.68 81.6747 145.68 80ZM189.543 86.272L186.425 88.336L178.357 82.912L170.218 88.368L167.1 86.304L175.239 80.816L167.481 75.6L170.575 73.52L178.333 78.736L186.045 73.552L189.186 75.632L181.451 80.832L189.543 86.272ZM218.198 87.888H227.028C227.663 87.888 228.167 88.008 228.539 88.248C228.912 88.488 229.099 88.8053 229.099 89.2V91.568H205.489V90.256C205.489 89.9893 205.572 89.7093 205.739 89.416C205.906 89.1227 206.171 88.8587 206.536 88.624L216.985 81.584C217.857 80.9867 218.639 80.416 219.329 79.872C220.019 79.328 220.594 78.7893 221.054 78.256C221.514 77.7227 221.867 77.1813 222.113 76.632C222.359 76.0827 222.482 75.504 222.482 74.896C222.482 74.3413 222.363 73.8533 222.125 73.432C221.887 73.0107 221.55 72.656 221.114 72.368C220.677 72.08 220.154 71.864 219.543 71.72C218.932 71.576 218.246 71.504 217.484 71.504C216.786 71.504 216.14 71.5707 215.545 71.704C214.95 71.8373 214.422 72.024 213.962 72.264C213.502 72.504 213.113 72.784 212.796 73.104C212.478 73.424 212.24 73.776 212.082 74.16C211.812 74.6507 211.463 74.976 211.035 75.136C210.606 75.296 209.987 75.3333 209.178 75.248L206.084 74.88C206.322 73.7707 206.782 72.7973 207.465 71.96C208.147 71.1227 209 70.424 210.023 69.864C211.046 69.304 212.221 68.8827 213.545 68.6C214.87 68.3173 216.294 68.176 217.818 68.176C219.404 68.176 220.856 68.3333 222.173 68.648C223.49 68.9627 224.616 69.408 225.553 69.984C226.489 70.56 227.219 71.2533 227.742 72.064C228.266 72.8747 228.528 73.776 228.528 74.768C228.528 75.6213 228.341 76.4107 227.968 77.136C227.595 77.8613 227.096 78.5547 226.469 79.216C225.842 79.8773 225.108 80.5173 224.267 81.136C223.426 81.7547 222.546 82.384 221.626 83.024L213.867 88.352C214.612 88.2027 215.354 88.088 216.092 88.008C216.83 87.928 217.532 87.888 218.198 87.888ZM257.706 80C257.706 82.016 257.385 83.768 256.742 85.256C256.1 86.744 255.211 87.9733 254.077 88.944C252.942 89.9147 251.602 90.6373 250.055 91.112C248.508 91.5867 246.838 91.824 245.045 91.824C243.252 91.824 241.59 91.5867 240.059 91.112C238.527 90.6373 237.199 89.9147 236.072 88.944C234.946 87.9733 234.065 86.744 233.43 85.256C232.796 83.768 232.478 82.016 232.478 80C232.478 77.9733 232.796 76.2187 233.43 74.736C234.065 73.2533 234.946 72.0267 236.072 71.056C237.199 70.0853 238.527 69.3627 240.059 68.888C241.59 68.4133 243.252 68.176 245.045 68.176C246.838 68.176 248.508 68.4133 250.055 68.888C251.602 69.3627 252.942 70.0853 254.077 71.056C255.211 72.0267 256.1 73.2533 256.742 74.736C257.385 76.2187 257.706 77.9733 257.706 80ZM251.637 80C251.637 78.3253 251.455 76.9387 251.09 75.84C250.725 74.7413 250.237 73.8667 249.626 73.216C249.015 72.5653 248.313 72.1093 247.52 71.848C246.727 71.5867 245.902 71.456 245.045 71.456C244.204 71.456 243.391 71.5867 242.605 71.848C241.82 72.1093 241.126 72.5653 240.523 73.216C239.92 73.8667 239.44 74.7413 239.083 75.84C238.726 76.9387 238.547 78.3253 238.547 80C238.547 81.6747 238.726 83.0613 239.083 84.16C239.44 85.2587 239.92 86.1333 240.523 86.784C241.126 87.4347 241.82 87.8907 242.605 88.152C243.391 88.4133 244.204 88.544 245.045 88.544C245.902 88.544 246.727 88.4133 247.52 88.152C248.313 87.8907 249.015 87.4347 249.626 86.784C250.237 86.1333 250.725 85.2587 251.09 84.16C251.455 83.0613 251.637 81.6747 251.637 80ZM285.314 80C285.314 82.016 284.993 83.768 284.35 85.256C283.708 86.744 282.819 87.9733 281.685 88.944C280.55 89.9147 279.21 90.6373 277.663 91.112C276.116 91.5867 274.446 91.824 272.653 91.824C270.86 91.824 269.198 91.5867 267.667 91.112C266.135 90.6373 264.807 89.9147 263.68 88.944C262.554 87.9733 261.673 86.744 261.038 85.256C260.404 83.768 260.086 82.016 260.086 80C260.086 77.9733 260.404 76.2187 261.038 74.736C261.673 73.2533 262.554 72.0267 263.68 71.056C264.807 70.0853 266.135 69.3627 267.667 68.888C269.198 68.4133 270.86 68.176 272.653 68.176C274.446 68.176 276.116 68.4133 277.663 68.888C279.21 69.3627 280.55 70.0853 281.685 71.056C282.819 72.0267 283.708 73.2533 284.35 74.736C284.993 76.2187 285.314 77.9733 285.314 80ZM279.245 80C279.245 78.3253 279.063 76.9387 278.698 75.84C278.333 74.7413 277.845 73.8667 277.234 73.216C276.623 72.5653 275.921 72.1093 275.128 71.848C274.335 71.5867 273.51 71.456 272.653 71.456C271.812 71.456 270.999 71.5867 270.213 71.848C269.428 72.1093 268.734 72.5653 268.131 73.216C267.528 73.8667 267.048 74.7413 266.691 75.84C266.334 76.9387 266.155 78.3253 266.155 80C266.155 81.6747 266.334 83.0613 266.691 84.16C267.048 85.2587 267.528 86.1333 268.131 86.784C268.734 87.4347 269.428 87.8907 270.213 88.152C270.999 88.4133 271.812 88.544 272.653 88.544C273.51 88.544 274.335 88.4133 275.128 88.152C275.921 87.8907 276.623 87.4347 277.234 86.784C277.845 86.1333 278.333 85.2587 278.698 84.16C279.063 83.0613 279.245 81.6747 279.245 80Z" fill="#999999"/>
</g>
<defs>
<clipPath id="clip0_113_548">
<path d="M0 8C0 3.58172 3.58172 0 8 0H349C353.418 0 357 3.58172 357 8V160H0V8Z" fill="white"/>
</clipPath>
</defs>
</svg>
