<svg width="200" height="200" viewBox="0 0 200 200" fill="none" xmlns="http://www.w3.org/2000/svg">
<path d="M0 100C0 44.7715 44.7715 0 100 0C155.228 0 200 44.7715 200 100C200 155.228 155.228 200 100 200C44.7715 200 0 155.228 0 100Z" fill="#DDDDDD"/>
<path d="M46.2 106.64H51.21C51.57 106.64 51.8567 106.74 52.07 106.94C52.2833 107.14 52.39 107.407 52.39 107.74V109.74H39V108.63C39 108.41 39.0467 108.173 39.14 107.92C39.2333 107.673 39.3833 107.453 39.59 107.26L45.52 101.32C46.0133 100.813 46.4567 100.33 46.85 99.87C47.2367 99.41 47.56 98.9567 47.82 98.51C48.0867 98.0567 48.2867 97.6 48.42 97.14C48.56 96.6733 48.63 96.1833 48.63 95.67C48.63 95.2033 48.5633 94.7933 48.43 94.44C48.2967 94.08 48.1067 93.78 47.86 93.54C47.6133 93.3 47.3167 93.1167 46.97 92.99C46.6233 92.87 46.2333 92.81 45.8 92.81C45.4067 92.81 45.04 92.8667 44.7 92.98C44.36 93.0933 44.06 93.25 43.8 93.45C43.54 93.6567 43.32 93.8933 43.14 94.16C42.96 94.4333 42.8233 94.73 42.73 95.05C42.5833 95.4633 42.3867 95.74 42.14 95.88C41.9 96.0133 41.55 96.0433 41.09 95.97L39.33 95.66C39.47 94.7267 39.7333 93.9067 40.12 93.2C40.5067 92.4933 40.99 91.9033 41.57 91.43C42.15 90.9567 42.8133 90.6 43.56 90.36C44.3133 90.12 45.1233 90 45.99 90C46.89 90 47.7133 90.1333 48.46 90.4C49.2067 90.6667 49.8467 91.0433 50.38 91.53C50.9067 92.0167 51.32 92.6 51.62 93.28C51.9133 93.9667 52.06 94.7267 52.06 95.56C52.06 96.28 51.9567 96.9467 51.75 97.56C51.5367 98.1733 51.2533 98.76 50.9 99.32C50.54 99.88 50.1233 100.42 49.65 100.94C49.17 101.46 48.67 101.99 48.15 102.53L43.75 107.03C44.17 106.903 44.59 106.807 45.01 106.74C45.43 106.673 45.8267 106.64 46.2 106.64ZM68.61 99.98C68.61 101.68 68.43 103.157 68.07 104.41C67.7033 105.67 67.2 106.71 66.56 107.53C65.9133 108.343 65.15 108.953 64.27 109.36C63.3967 109.76 62.45 109.96 61.43 109.96C60.4167 109.96 59.4733 109.76 58.6 109.36C57.7333 108.953 56.98 108.343 56.34 107.53C55.7 106.71 55.2 105.67 54.84 104.41C54.48 103.157 54.3 101.68 54.3 99.98C54.3 98.2667 54.48 96.7867 54.84 95.54C55.2 94.2867 55.7 93.25 56.34 92.43C56.98 91.61 57.7333 91 58.6 90.6C59.4733 90.2 60.4167 90 61.43 90C62.45 90 63.3967 90.2 64.27 90.6C65.15 91 65.9133 91.61 66.56 92.43C67.2 93.25 67.7033 94.2867 68.07 95.54C68.43 96.7867 68.61 98.2667 68.61 99.98ZM65.17 99.98C65.17 98.5667 65.0667 97.3967 64.86 96.47C64.6533 95.5433 64.3767 94.8067 64.03 94.26C63.6833 93.7067 63.2867 93.32 62.84 93.1C62.3867 92.88 61.9167 92.77 61.43 92.77C60.9567 92.77 60.4967 92.88 60.05 93.1C59.6033 93.32 59.21 93.7067 58.87 94.26C58.5233 94.8067 58.25 95.5433 58.05 96.47C57.85 97.3967 57.75 98.5667 57.75 99.98C57.75 101.393 57.85 102.563 58.05 103.49C58.25 104.417 58.5233 105.153 58.87 105.7C59.21 106.253 59.6033 106.64 60.05 106.86C60.4967 107.08 60.9567 107.19 61.43 107.19C61.9167 107.19 62.3867 107.08 62.84 106.86C63.2867 106.64 63.6833 106.253 64.03 105.7C64.3767 105.153 64.6533 104.417 64.86 103.49C65.0667 102.563 65.17 101.393 65.17 99.98ZM84.27 99.98C84.27 101.68 84.09 103.157 83.73 104.41C83.3633 105.67 82.86 106.71 82.22 107.53C81.5733 108.343 80.81 108.953 79.93 109.36C79.0567 109.76 78.11 109.96 77.09 109.96C76.0767 109.96 75.1333 109.76 74.26 109.36C73.3933 108.953 72.64 108.343 72 107.53C71.36 106.71 70.86 105.67 70.5 104.41C70.14 103.157 69.96 101.68 69.96 99.98C69.96 98.2667 70.14 96.7867 70.5 95.54C70.86 94.2867 71.36 93.25 72 92.43C72.64 91.61 73.3933 91 74.26 90.6C75.1333 90.2 76.0767 90 77.09 90C78.11 90 79.0567 90.2 79.93 90.6C80.81 91 81.5733 91.61 82.22 92.43C82.86 93.25 83.3633 94.2867 83.73 95.54C84.09 96.7867 84.27 98.2667 84.27 99.98ZM80.83 99.98C80.83 98.5667 80.7267 97.3967 80.52 96.47C80.3133 95.5433 80.0367 94.8067 79.69 94.26C79.3433 93.7067 78.9467 93.32 78.5 93.1C78.0467 92.88 77.5767 92.77 77.09 92.77C76.6167 92.77 76.1567 92.88 75.71 93.1C75.2633 93.32 74.87 93.7067 74.53 94.26C74.1833 94.8067 73.91 95.5433 73.71 96.47C73.51 97.3967 73.41 98.5667 73.41 99.98C73.41 101.393 73.51 102.563 73.71 103.49C73.91 104.417 74.1833 105.153 74.53 105.7C74.87 106.253 75.2633 106.64 75.71 106.86C76.1567 107.08 76.6167 107.19 77.09 107.19C77.5767 107.19 78.0467 107.08 78.5 106.86C78.9467 106.64 79.3433 106.253 79.69 105.7C80.0367 105.153 80.3133 104.417 80.52 103.49C80.7267 102.563 80.83 101.393 80.83 99.98ZM105.71 105.27L103.94 107.01L99.37 102.44L94.75 107.04L92.98 105.3L97.6 100.67L93.2 96.27L94.95 94.51L99.35 98.91L103.73 94.54L105.51 96.29L101.12 100.68L105.71 105.27ZM121.97 106.64H126.97C127.33 106.64 127.617 106.74 127.83 106.94C128.043 107.14 128.15 107.407 128.15 107.74V109.74H114.76V108.63C114.76 108.41 114.807 108.173 114.9 107.92C114.993 107.673 115.143 107.453 115.35 107.26L121.28 101.32C121.773 100.813 122.217 100.33 122.61 99.87C122.997 99.41 123.323 98.9567 123.59 98.51C123.85 98.0567 124.05 97.6 124.19 97.14C124.33 96.6733 124.4 96.1833 124.4 95.67C124.4 95.2033 124.33 94.7933 124.19 94.44C124.057 94.08 123.867 93.78 123.62 93.54C123.373 93.3 123.077 93.1167 122.73 92.99C122.383 92.87 121.993 92.81 121.56 92.81C121.167 92.81 120.8 92.8667 120.46 92.98C120.12 93.0933 119.82 93.25 119.56 93.45C119.3 93.6567 119.08 93.8933 118.9 94.16C118.72 94.4333 118.587 94.73 118.5 95.05C118.347 95.4633 118.147 95.74 117.9 95.88C117.66 96.0133 117.31 96.0433 116.85 95.97L115.09 95.66C115.23 94.7267 115.493 93.9067 115.88 93.2C116.267 92.4933 116.75 91.9033 117.33 91.43C117.91 90.9567 118.577 90.6 119.33 90.36C120.077 90.12 120.883 90 121.75 90C122.65 90 123.473 90.1333 124.22 90.4C124.967 90.6667 125.607 91.0433 126.14 91.53C126.667 92.0167 127.08 92.6 127.38 93.28C127.673 93.9667 127.82 94.7267 127.82 95.56C127.82 96.28 127.717 96.9467 127.51 97.56C127.297 98.1733 127.013 98.76 126.66 99.32C126.3 99.88 125.883 100.42 125.41 100.94C124.93 101.46 124.43 101.99 123.91 102.53L119.51 107.03C119.93 106.903 120.35 106.807 120.77 106.74C121.19 106.673 121.59 106.64 121.97 106.64ZM144.38 99.98C144.38 101.68 144.197 103.157 143.83 104.41C143.463 105.67 142.96 106.71 142.32 107.53C141.673 108.343 140.913 108.953 140.04 109.36C139.16 109.76 138.21 109.96 137.19 109.96C136.177 109.96 135.237 109.76 134.37 109.36C133.497 108.953 132.74 108.343 132.1 107.53C131.467 106.71 130.97 105.67 130.61 104.41C130.25 103.157 130.07 101.68 130.07 99.98C130.07 98.2667 130.25 96.7867 130.61 95.54C130.97 94.2867 131.467 93.25 132.1 92.43C132.74 91.61 133.497 91 134.37 90.6C135.237 90.2 136.177 90 137.19 90C138.21 90 139.16 90.2 140.04 90.6C140.913 91 141.673 91.61 142.32 92.43C142.96 93.25 143.463 94.2867 143.83 95.54C144.197 96.7867 144.38 98.2667 144.38 99.98ZM140.93 99.98C140.93 98.5667 140.827 97.3967 140.62 96.47C140.413 95.5433 140.137 94.8067 139.79 94.26C139.443 93.7067 139.047 93.32 138.6 93.1C138.147 92.88 137.677 92.77 137.19 92.77C136.717 92.77 136.257 92.88 135.81 93.1C135.363 93.32 134.97 93.7067 134.63 94.26C134.29 94.8067 134.017 95.5433 133.81 96.47C133.61 97.3967 133.51 98.5667 133.51 99.98C133.51 101.393 133.61 102.563 133.81 103.49C134.017 104.417 134.29 105.153 134.63 105.7C134.97 106.253 135.363 106.64 135.81 106.86C136.257 107.08 136.717 107.19 137.19 107.19C137.677 107.19 138.147 107.08 138.6 106.86C139.047 106.64 139.443 106.253 139.79 105.7C140.137 105.153 140.413 104.417 140.62 103.49C140.827 102.563 140.93 101.393 140.93 99.98ZM160.04 99.98C160.04 101.68 159.857 103.157 159.49 104.41C159.123 105.67 158.62 106.71 157.98 107.53C157.333 108.343 156.573 108.953 155.7 109.36C154.82 109.76 153.87 109.96 152.85 109.96C151.837 109.96 150.897 109.76 150.03 109.36C149.157 108.953 148.4 108.343 147.76 107.53C147.127 106.71 146.63 105.67 146.27 104.41C145.91 103.157 145.73 101.68 145.73 99.98C145.73 98.2667 145.91 96.7867 146.27 95.54C146.63 94.2867 147.127 93.25 147.76 92.43C148.4 91.61 149.157 91 150.03 90.6C150.897 90.2 151.837 90 152.85 90C153.87 90 154.82 90.2 155.7 90.6C156.573 91 157.333 91.61 157.98 92.43C158.62 93.25 159.123 94.2867 159.49 95.54C159.857 96.7867 160.04 98.2667 160.04 99.98ZM156.59 99.98C156.59 98.5667 156.487 97.3967 156.28 96.47C156.073 95.5433 155.797 94.8067 155.45 94.26C155.103 93.7067 154.707 93.32 154.26 93.1C153.807 92.88 153.337 92.77 152.85 92.77C152.377 92.77 151.917 92.88 151.47 93.1C151.023 93.32 150.63 93.7067 150.29 94.26C149.95 94.8067 149.677 95.5433 149.47 96.47C149.27 97.3967 149.17 98.5667 149.17 99.98C149.17 101.393 149.27 102.563 149.47 103.49C149.677 104.417 149.95 105.153 150.29 105.7C150.63 106.253 151.023 106.64 151.47 106.86C151.917 107.08 152.377 107.19 152.85 107.19C153.337 107.19 153.807 107.08 154.26 106.86C154.707 106.64 155.103 106.253 155.45 105.7C155.797 105.153 156.073 104.417 156.28 103.49C156.487 102.563 156.59 101.393 156.59 99.98Z" fill="#999999"/>
</svg>
