<svg width="36" height="36" viewBox="0 0 36 36" fill="none" xmlns="http://www.w3.org/2000/svg">
<path d="M26.9191 9.07031C28.7451 9.39867 30.2428 10.383 31.4135 12.0234C32.4436 13.4768 33.146 15.3049 33.52 17.5078C33.8484 19.5237 33.8238 21.5388 33.4497 23.5547C32.8879 26.8826 31.7643 29.6719 30.0789 31.9219C28.0652 34.6409 25.5375 36 22.4943 36C21.7448 36 20.9264 35.7659 20.0362 35.2969C19.4273 34.9221 18.7488 34.7344 17.9993 34.7344C17.2497 34.7344 16.5719 34.9221 15.9623 35.2969C15.0722 35.7659 14.2537 36 13.5042 36C10.4611 36 7.93332 34.6409 5.91957 31.9219C4.23418 29.6719 3.11059 26.8826 2.54879 23.5547C2.17473 21.5388 2.15012 19.5237 2.47848 17.5078C2.85254 15.3049 3.55496 13.4768 4.58504 12.0234C5.75574 10.383 7.2534 9.39867 9.07942 9.07031C10.203 8.88258 11.7478 9.04711 13.7144 9.5625C15.3998 10.0315 16.8279 10.594 17.9986 11.25C19.1693 10.594 20.5973 10.0315 22.2827 9.5625C24.25 9.04711 25.7955 8.88258 26.9191 9.07031ZM23.0561 6.1875C22.4008 6.79711 21.5339 7.24219 20.4574 7.52344C19.7079 7.75758 18.8894 7.875 17.9993 7.875L16.946 7.80469C16.8525 7.14867 16.8525 6.39844 16.946 5.55469C17.1337 3.86719 17.6716 2.57836 18.5611 1.6875C19.2164 1.07789 20.0833 0.632812 21.1598 0.351562C21.9093 0.117422 22.7278 0 23.6179 0L24.6712 0.0703125L24.7415 1.125C24.7415 2.01586 24.6241 2.8357 24.3907 3.58594C24.1101 4.66383 23.6657 5.53148 23.0561 6.1875Z" fill="#EF4444"/>
</svg>
