<svg width="36" height="36" viewBox="0 0 36 36" fill="none" xmlns="http://www.w3.org/2000/svg">
<g clip-path="url(#clip0_113_317)">
<path d="M20.9676 11.0109C17.2622 9.20391 12.9168 10.2727 10.4067 13.3172L14.2879 17.1984C14.7309 17.6414 14.7309 18.3516 14.2879 18.7875C14.07 19.0055 13.7817 19.118 13.4934 19.118C13.2051 19.118 12.9168 19.0055 12.6989 18.7875L9.16918 15.2578L0.162153 33.7289C-0.041753 34.1508 -0.0558154 34.6641 0.162153 35.1141C0.541841 35.8945 1.49106 36.218 2.27153 35.8383L11.6653 31.2539L8.2059 27.7945C7.76293 27.3586 7.76293 26.6414 8.2059 26.2055C8.64887 25.7695 9.35903 25.7695 9.79497 26.2055L13.8028 30.2133L20.9747 26.7117C22.6622 25.8891 24.1036 24.5109 24.9895 22.6969C27.1059 18.3586 25.3059 13.1273 20.9676 11.0109ZM27.4434 8.55703C28.8145 5.69531 28.1043 2.31328 25.3129 0C21.7762 2.93203 21.6215 7.55859 24.7575 10.6805L25.32 11.243C28.4418 14.3789 33.0754 14.2242 36.0004 10.6875C33.6872 7.89609 30.3051 7.18594 27.4434 8.55703Z" fill="#EF4444"/>
</g>
<defs>
<clipPath id="clip0_113_317">
<rect width="36" height="36" fill="white"/>
</clipPath>
</defs>
</svg>
